<svg version="1" xmlns="http://www.w3.org/2000/svg" width="966.667" height="966.667" viewBox="0 0 725.000000 725.000000"><path d="M341 25.4c-.3.2-4.2.7-8.8 1-11 .8-33.6 4.7-49.2 8.4C194.4 56 117.4 113.4 70.8 193c-23.3 39.8-38.2 85.1-44.2 134.5-1.1 8.7-1.4 19.8-1.1 40 .1 15.4.5 29.1.8 30.5.3 1.4.8 4.7 1.2 7.5 1.1 8.9 1.6 11.9 3.1 19.5.8 4.1 1.6 8.4 1.8 9.5.2 1.1 1.8 7.4 3.5 14 6.1 24 12.6 41.4 24.1 65 7.4 15.1 21.2 38.6 23.1 39.3.5.2.9.8.9 1.4 0 2 18.9 26.3 29 37.1 20.4 22.1 47.9 45.2 69.1 58.2 3.8 2.3 21.8 12.5 27 15.3 29.9 16.1 78.7 30.9 114.4 34.8 3.3.3 7.4.8 9 1 8 1.2 49.9 1.1 62-.2 67.6-7 127.5-31 179-71.8 12.8-10.2 12.4-9.8 27.4-24.6 15.2-15.1 18.2-18.3 29.3-32.5C639.1 560 654 538 654 536.2c0-.6.4-1.2.9-1.4 1.5-.5 15.5-28.3 20.7-41 10.8-26.1 20.1-60.5 22.9-84.3.4-2.8.8-6.1 1.1-7.5 2.4-14.4 2.4-58.4-.1-78-1.1-8.8-3-20-5.2-30-1.3-6.3-2.6-12.5-2.9-13.6-1-5.1-9.5-31.7-12.9-40.4-5.4-14.1-19.4-41.9-27.3-54.7-6-9.7-22.4-32.6-25.6-35.9-.6-.6-3.3-3.8-6-7-9.2-10.9-32-32.9-45.1-43.3-12.7-10.2-30.2-22.2-40-27.6-2.7-1.5-5.4-3.1-6-3.5-1.6-1.2-18.2-9.5-26.8-13.4-20.9-9.5-51.6-19.2-73.2-23.1-1.6-.3-6.4-1.2-10.7-2-4.2-.8-10.5-1.7-14-2-3.4-.4-7.4-.9-8.8-1.2-3.3-.6-53.5-1.5-54-.9zm50 10.7c15.2 1.6 17.9 2 28.6 3.9 36.2 6.3 71.9 18.9 103.6 36.6 11.5 6.4 31.9 19.7 38.8 25.3 2.5 2 5.4 4.3 6.4 5.1 15 11.9 35.4 31.9 47.9 47.1 31.4 38.1 52.8 80.2 65.1 127.9 3.4 13.4 4.6 19.1 7.1 35 2.8 17.6 3.9 57.6 2.1 75-2.2 21.3-5.1 37.6-9.7 55-21.1 79.5-70.7 147.9-139.5 192.2-16.6 10.8-28 16.9-48.4 26.1-14.5 6.5-44.5 16.1-60.1 19.2-10.1 2-18.1 3.4-22.9 4-4.9.6-9.2 1.2-15.5 2.1-6.3.9-48.2 1.2-56.5.3-16.7-1.6-22.4-2.3-31.2-3.9-3.5-.7-7.4-1.4-8.8-1.6-7.6-1.3-28.8-7.1-40.2-11-31.4-10.8-58.7-24.7-84.8-43.4-16.8-12-26.7-20.5-43.1-36.9-25.6-25.8-44.1-51.5-60.4-84.1-6.2-12.4-16.2-35.6-16.9-39.4-.1-.6-1.7-5.6-3.4-11.1-2.9-9.3-7.2-26.4-8.6-34.5-.3-1.9-.8-4.6-1.1-5.9-.5-2.7-2.1-14.2-3.2-24.1-1-8.4-1-56.6 0-65 .4-3.6 1.2-9.2 1.7-12.5.5-3.3 1.1-7.8 1.5-10 1.4-9.8 7.1-32.2 11.6-45.9 8.3-25.2 18.3-46.9 32.2-69.9 6.1-10 20.5-30.5 24.1-34.3.6-.6 3.1-3.6 5.5-6.5 8.1-9.8 34.4-35.3 45.5-44.1 30.4-24.2 65.8-43.4 102.3-55.3C283.4 44 312.2 38 333 36.4c4.7-.3 8.7-.8 8.8-.9.8-.7 42.1-.2 49.2.6z"/><path d="M515.2 102.7c-3.1 8-11.7 48.2-14.6 67.8-.4 2.3-.8 5-1 6-.6 3.3-1.7 9.8-2.1 13-6.4 46.5-6.4 47.9-.5 66 5.8 17.8 16.9 44.9 28.4 69.9 11.6 25.1 19.7 48.5 22.9 66.6 1.7 9 2 10.2 2.7 8.9 1.5-2.8 3.2-12.6 3.6-20.5.4-9.7-.5-13.3-8.1-32.4-3.1-8-6.1-15.6-6.5-17-.4-1.4-3.1-7.5-6-13.5-14.5-30.4-25.6-58.4-28.5-71.9-1.5-6.5-1.7-10.8-1.1-24.5.3-9.1.8-18 1-19.6.2-1.7.7-6.6 1.1-10.9.4-4.3.8-8.6 1-9.5.1-.9.6-4.7 1-8.4.3-3.7.8-7.6 1-8.5.1-.9.6-4.9.9-8.7.4-3.9.9-8.1 1.1-9.5.4-2.4 1-7.1 2.1-15.5.2-2.2.7-5.6.9-7.5 1.2-8.9 2.5-23 2-23-.1 0-.7 1.2-1.3 2.7zM210.4 104.5c.3 2.2.8 6.2 1.1 9 .3 2.7.7 6.6 1 8.5.3 1.9.7 5.5.9 8 .3 2.5.7 6.1 1 8 .3 1.9.8 5.7 1.1 8.5.3 2.7 1 8.4 1.5 12.5.9 7.2 1.1 9.1 2.5 22.5.4 3.3.8 7 1 8.3 1.2 7.7 2 21.9 1.9 36.7 0 15.7-.2 17.7-2.8 26-4.3 14.1-12.1 34.1-21.3 54.9-4.7 10.5-9.5 22-10.8 25.6-1.2 3.6-2.7 7.6-3.3 9-2 4.6-9.5 24.5-10.4 27.5-1.8 5.9-1.9 14.7-.3 22.9.9 4.4 2 8.5 2.5 8.9.4.5 1.1-1.1 1.6-3.5.4-2.3.8-4.5.9-4.8.3-1.7 1.6-7.9 2-10 .9-4.4 6.6-23.1 9.6-31.2 3.1-8.5 3.2-8.7 14.4-32.8 11.9-25.6 23.9-56.8 28.8-74.5 1.7-6.2 1.3-19.5-.8-33.5-.2-1.4-.6-4.5-1-7-.3-2.5-.8-5.6-1-7-.2-1.4-.7-4.5-1-7-.8-6.2-4.3-26.8-6.1-36.5-4.1-21.2-5.7-28.9-10.4-47.4-1.3-5.3-3.3-6.5-2.6-1.6zM367.9 145.7c-.1 3.8-.2 8.6-.4 10.8-.1 2.2-.5 10.7-.9 19-.4 8.2-.9 19-1.1 24-1.9 35.1-2.8 69.9-2.9 102.5 0 35 .3 42.2 2.1 51.5 3.5 17.3 4.5 28 4.6 46.3 0 12.6-.9 32.3-1.7 36.8-.2 1.1-.6 3.9-.9 6.4-1.2 8.9 2.1-5.6 4.7-21.5 5.1-29.8 6.1-51.8 3.3-68-2.2-12.7-2.5-14.9-3.2-25-.4-5-.8-10.8-1-13-1.1-12.1-1.9-62.3-1.8-115.8.1-33.4 0-60.7-.3-60.7-.2 0-.4 3-.5 6.7zM94.9 313.1c-1.9 1.9-2.1 2.9-1.6 9.8.3 4.2.8 8.5 1 9.6.3 1.1.8 4.2 1.1 7 1.1 8 1.6 6.6 1.6-4.6 0-11.8 1.3-17.9 3.7-17.9 4.8 0 14.2 8.7 16.6 15.3.8 2.2 9.2 38.5 10.1 43.9.8 4.2 2.2 5.1 2.2 1.5.2-6.7 2.8-19.3 4.6-21.5 1.5-1.7 2.2-1.5 5.7 1.4 8.4 7.1 10.4 17.3 6.6 34.4l-.8 3.5 2.8-3.3c4.5-5.3 7.5-4.1 9.6 3.9 1.1 4 .9 5.8-.9 13.9-1.2 5.1-2 9.5-1.8 9.7.5.6 5.4-11.3 6.1-15 1.7-8.8.4-17.4-3.1-21.2-1.9-2.1-2.7-2.3-4.8-1.6l-2.4 1 .2-8.2c.2-4.5-.1-9.6-.5-11.3-1-3.7-8.1-11.5-12.5-13.7-2.7-1.4-3.3-1.4-5.2-.1-2.4 1.7-4.2 7.1-4.2 12.8 0 2.2-.2 3.7-.4 3.5-.5-.4-2.1-9.9-3.3-18.4-2.7-20.7-6.6-27.2-19.9-33.9-6.3-3.2-7.8-3.2-10.5-.5zM623.5 312.2c-4.8 1.5-13.7 8-16.2 11.7-3 4.4-3.9 8.1-7.3 27.6-1.8 10.5-2.8 14.5-2.9 11.5-.2-6.4-1.8-11.7-4.3-13.4-1.9-1.3-2.5-1.3-5.2.1-4 1.9-11.5 10-12.4 13.3-.4 1.4-.6 6.4-.6 11.2 0 7.3-.2 8.6-1.4 7.9-4.7-2.6-9.3 4.5-9.3 14.2.1 8.1.5 10.2 4.1 18.4 3.4 7.9 3.7 6.8 1.1-3.5-2.2-8.2-2-16.2.4-19.8 2.1-3.2 4-3 7.7.7l3.1 3-.7-3.3c-2.9-13.5-2.7-21.3.9-27.4 3.4-5.8 9-10.1 11-8.4 1.6 1.3 4.4 13.1 4.8 20.2.2 5.2 1.1 5.5 2 .6.4-1.8 2.9-12.9 5.6-24.6 5.7-24.3 7.4-27.8 16.3-33.2 5.3-3.2 7-2.5 8.4 3.2.1.5.3 6.1.4 12.5l.2 11.8 1.4-7.5c.7-4.1 1.6-11.2 2-15.8.6-7.1.4-8.5-1.1-10.2-2-2.2-3.4-2.3-8-.8z"/><path d="M70.1 340.8c-4.6 1.4-4.7 3.3-.8 12.3 3.7 8.8 4.7 11.3 17.7 46.4 17.2 46.2 26.1 66.3 33.9 76.8 11.5 15.5 30.5 31.6 62.1 52.4 40.2 26.6 59.5 41.4 75.7 58.5 11.5 12 22.2 28.6 26.1 40.3 2.9 8.7 3.3 11.5 3.7 27 .3 7.7.5 14.4.6 15 .1 1.1 2.5-6.9 3.7-12.5 1.3-6.5.6-26.1-1.3-33.4-3.8-14.9-9.3-23.3-27-41.2-12-12.1-20.8-19.9-35.5-31.6-16.6-13.1-25.5-19.1-53-35.3-6.3-3.7-15.7-10-20.9-13.8-25.8-19.4-36.2-35.9-55.6-88.2-13.6-36.8-19.4-51.5-25.1-62.8-1.3-2.7-2.4-5.1-2.4-5.3 0-.2 1.6-.4 3.6-.4 11.2 0 27.6 15.3 46.4 43.6 7.3 10.9 7.7 11.1 3.4 1.9-8.7-18.3-16.7-31.2-25.1-40.5-1.3-1.4-2.3-2.8-2.3-3.3 0-.4-.4-.6-.9-.2-.5.3-1.2.1-1.6-.5-.3-.6-2.5-2-4.7-3.1-4.4-2.2-16.3-3.4-20.7-2.1zM637.3 342.3c-2.8 1.2-6.8 3.5-8.8 5.2-7.3 5.9-16.9 20.4-25.9 39-2.2 4.4-4.4 8.9-4.9 10-1.5 3.1-.3 1.6 4.9-6C623.3 360 639 345 650.2 345c2.1 0 3.8.2 3.8.4 0 .3-2 4.7-4.5 9.8-5.2 10.9-9.2 20.9-21 52.9-10.1 27.2-12 31.8-18.7 45.8-5.1 10.5-10.2 19.5-12.5 21.9-.7.7-1.3 1.7-1.3 2 0 1.4-13.5 14.7-20.5 20.3-9.2 7.4-19 13.8-35.5 23.4-17.1 9.8-31.5 19.9-47.5 32.9-2.7 2.3-6.1 5-7.4 6.1-11.2 9.1-32.9 30.6-38.9 38.7-5.4 7-9.5 15.7-11.8 24.3-2.5 9.7-2.5 28.3-.1 38.8 1 4.3 2 7.7 2.2 7.5.3-.2.6-7.1.9-15.3.3-8.4 1.2-17.7 2-21.2 4.1-16.6 16.5-35.4 34.8-52.8 16.4-15.7 36.4-30.7 66.3-50 15.4-10 33-22.7 40.8-29.4 8.3-7 21.7-21.4 25.9-27.6 5.8-8.6 15.1-29.3 24.3-54 16.3-44 19-51.1 27.8-72.7 1.8-4.5-.7-6.2-9.5-6.5-5.7-.1-8.5.3-12.5 2z"/><path d="M591.7 407.2c-1.9 2.9-7 11.1-11.5 18.3-4.4 7.1-9.4 14.9-11.1 17.2-3.4 4.7-19.2 17.7-30.3 24.9-12.2 8-30.3 15.3-41.7 16.9l-5.4.7.6-3.3c1.1-5.6 5.1-8.1 20.6-13.3 30.9-10.1 40.6-18.3 46.1-38.6 1.5-5.8 2.2-15.3 1.2-16.8-1.5-2.3-6.9-1.8-18.7 1.8-10.5 3.2-36.5 13.6-47.5 19-5.3 2.7-18.6 8.2-29.6 12.3-23.2 8.7-29 11.4-39.9 18.1-20.5 12.6-32.4 25.7-42.3 46.8-4.1 8.6-4.6 10.1-7 20.7-1.4 5.8-1.3 21.3.2 32.9 1.5 11.6 1.2 25.4-1 38.4-.2 1.6-.6 4-.9 5.5-.2 1.6-.9 5.7-1.4 9.3-.6 3.6-1.7 9.5-2.5 13.2-.8 3.8-1.3 7.6-1.1 8.5.2 1 .4 2.2.4 2.7.1.6.6.5 1.2-.1.8-.8 2.5-6.7 4.4-15.3l2-8c.9-3.6 1.9-7.6 2.2-9 .2-1.4 1.3-6.4 2.3-11.2 2.9-13 3.5-18.4 3.1-28.3-.7-19.5-.4-31.3 1.3-44.5 1.7-12.4 8.6-25.1 20.1-36.5 16.2-16.2 38.4-28.8 70.7-40 5.6-2 16.9-7 25.1-11.1 24.2-12.3 38.5-18.1 46.8-19 5.6-.6 7.4 1 6.6 5.9-.8 5.2-6.4 16.1-10.2 20-3.8 3.9-12.6 9.9-16 11-9.5 2.8-29 9.9-31.5 11.4-1.7.9-4.1 3.3-5.5 5.3-3.1 4.5-8.1 15.6-9 19.7-.6 3.1-.5 3.3 2.4 3.3 8.3 0 28.5-6.4 41.1-13.2 26-13.8 42.6-26.9 53.6-42.4 3.6-5 8.2-14.3 9.5-19.2 1.4-5.3 4.3-14 5.6-16.5 2.2-4.4.7-3.1-3 2.5zM131.5 404.7c.4 1 2.7 7.6 5.1 14.8 5.3 15.4 10.2 23.2 21.7 34.6 10.4 10.3 31.9 24.5 49.3 32.5 9 4.2 28.3 9.6 32.6 9.2 3-.3 3.3-.6 3.1-3.2-.2-3.3-6.3-16.5-9.4-20.4-3.3-4.3-6.6-5.9-21.3-10.8-25.3-8.4-32.8-14-39-29.3-5-12.4-2.9-15 9.9-11.7 8.9 2.4 39 15.9 50 22.6 1.7 1 8.4 3.7 15 6 33.4 11.8 55.6 24.1 71.1 39.5 15 14.8 20 25.7 22.1 47.5.4 4.1.6 13.3.4 20.5-.7 24.8-.7 25.6 1.8 36.8.6 2.6 1.4 6.4 1.7 8.4.3 2.1 2.4 10.9 4.6 19.8 4.6 18.6 4.6 18.6 4.7 20.2.1 1.9 1.9 1.5 2.5-.5.4-1-.5-7.5-1.8-14.3-1.3-6.8-2.7-14.4-3-16.9-.3-2.5-.8-5.4-1-6.5-1.8-9.6-2.5-27.9-1.2-36 1.6-10.7 1.6-30.8.1-37.5-5-21.6-20.4-45.4-37.5-58.1-5.7-4.2-19.3-12.4-25.3-15.3-3.1-1.4-13.7-5.6-23.4-9.2-9.8-3.6-24.1-9.5-31.8-13.1-29.5-13.8-56.1-23-64.7-22.4-4.2.3-3.1 13.7 2.3 26.8 5.6 13.5 17.8 21.9 43.4 30.2 6.6 2.1 13.2 4.4 14.7 5.1 4.2 2 7.8 11 4.4 11-3.9 0-16.4-3.3-24-6.3-14.3-5.7-24.7-12.4-46.7-30.2-2.9-2.3-9.1-11.4-21.3-31.3-8.1-13-10.9-17-9.1-12.5z"/></svg>