<?xml version="1.0" standalone="no"?>
<!DOCTYPE svg PUBLIC "-//W3C//DTD SVG 20010904//EN"
 "http://www.w3.org/TR/2001/REC-SVG-20010904/DTD/svg10.dtd">
<svg version="1.0" xmlns="http://www.w3.org/2000/svg"
 width="725.000000pt" height="725.000000pt" viewBox="0 0 725.000000 725.000000"
 preserveAspectRatio="xMidYMid meet">
<metadata>
Created by potrace 1.11, written by Peter Selinger 2001-2013
</metadata>
<g transform="translate(0.000000,725.000000) scale(0.100000,-0.100000)"
fill="#000000" stroke="none">
<path d="M3410 6996 c-3 -2 -42 -7 -88 -10 -110 -8 -336 -47 -492 -84 -886
-212 -1656 -786 -2122 -1582 -233 -398 -382 -851 -442 -1345 -11 -87 -14 -198
-11 -400 1 -154 5 -291 8 -305 3 -14 8 -47 12 -75 11 -89 16 -119 31 -195 8
-41 16 -84 18 -95 2 -11 18 -74 35 -140 61 -240 126 -414 241 -650 74 -151
212 -386 231 -393 5 -2 9 -8 9 -14 0 -20 189 -263 290 -371 204 -221 479 -452
691 -582 38 -23 218 -125 270 -153 299 -161 787 -309 1144 -348 33 -3 74 -8
90 -10 80 -12 499 -11 620 2 676 70 1275 310 1790 718 128 102 124 98 274 246
152 151 182 183 293 325 89 115 238 335 238 353 0 6 4 12 9 14 15 5 155 283
207 410 108 261 201 605 229 843 4 28 8 61 11 75 24 144 24 584 -1 780 -11 88
-30 200 -52 300 -13 63 -26 125 -29 136 -10 51 -95 317 -129 404 -54 141 -194
419 -273 547 -60 97 -224 326 -256 359 -6 6 -33 38 -60 70 -92 109 -320 329
-451 433 -127 102 -302 222 -400 276 -27 15 -54 31 -60 35 -16 12 -182 95
-268 134 -209 95 -516 192 -732 231 -16 3 -64 12 -107 20 -42 8 -105 17 -140
20 -34 4 -74 9 -88 12 -33 6 -535 15 -540 9z m500 -107 c152 -16 179 -20 286
-39 362 -63 719 -189 1036 -366 115 -64 319 -197 388 -253 25 -20 54 -43 64
-51 150 -119 354 -319 479 -471 314 -381 528 -802 651 -1279 34 -134 46 -191
71 -350 28 -176 39 -576 21 -750 -22 -213 -51 -376 -97 -550 -211 -795 -707
-1479 -1395 -1922 -166 -108 -280 -169 -484 -261 -145 -65 -445 -161 -601
-192 -101 -20 -181 -34 -229 -40 -49 -6 -92 -12 -155 -21 -63 -9 -482 -12
-565 -3 -167 16 -224 23 -312 39 -35 7 -74 14 -88 16 -76 13 -288 71 -402 110
-314 108 -587 247 -848 434 -168 120 -267 205 -431 369 -256 258 -441 515
-604 841 -62 124 -162 356 -169 394 -1 6 -17 56 -34 111 -29 93 -72 264 -86
345 -3 19 -8 46 -11 59 -5 27 -21 142 -32 241 -10 84 -10 566 0 650 4 36 12
92 17 125 5 33 11 78 15 100 14 98 71 322 116 459 83 252 183 469 322 699 61
100 205 305 241 343 6 6 31 36 55 65 81 98 344 353 455 441 304 242 658 434
1023 553 227 75 515 135 723 151 47 3 87 8 88 9 8 7 421 2 492 -6z"/>
<path d="M5152 6223 c-31 -80 -117 -482 -146 -678 -4 -23 -8 -50 -10 -60 -6
-33 -17 -98 -21 -130 -64 -465 -64 -479 -5 -660 58 -178 169 -449 284 -699
116 -251 197 -485 229 -666 17 -90 20 -102 27 -89 15 28 32 126 36 205 4 97
-5 133 -81 324 -31 80 -61 156 -65 170 -4 14 -31 75 -60 135 -145 304 -256
584 -285 719 -15 65 -17 108 -11 245 3 91 8 180 10 196 2 17 7 66 11 109 4 43
8 86 10 95 1 9 6 47 10 84 3 37 8 76 10 85 1 9 6 49 9 87 4 39 9 81 11 95 4
24 10 71 21 155 2 22 7 56 9 75 12 89 25 230 20 230 -1 0 -7 -12 -13 -27z"/>
<path d="M2104 6205 c3 -22 8 -62 11 -90 3 -27 7 -66 10 -85 3 -19 7 -55 9
-80 3 -25 7 -61 10 -80 3 -19 8 -57 11 -85 3 -27 10 -84 15 -125 9 -72 11 -91
25 -225 4 -33 8 -70 10 -83 12 -77 20 -219 19 -367 0 -157 -2 -177 -28 -260
-43 -141 -121 -341 -213 -549 -47 -105 -95 -220 -108 -256 -12 -36 -27 -76
-33 -90 -20 -46 -95 -245 -104 -275 -18 -59 -19 -147 -3 -229 9 -44 20 -85 25
-89 4 -5 11 11 16 35 4 23 8 45 9 48 3 17 16 79 20 100 9 44 66 231 96 312 31
85 32 87 144 328 119 256 239 568 288 745 17 62 13 195 -8 335 -2 14 -6 45
-10 70 -3 25 -8 56 -10 70 -2 14 -7 45 -10 70 -8 62 -43 268 -61 365 -41 212
-57 289 -104 474 -13 53 -33 65 -26 16z"/>
<path d="M3679 5793 c-1 -38 -2 -86 -4 -108 -1 -22 -5 -107 -9 -190 -4 -82 -9
-190 -11 -240 -19 -351 -28 -699 -29 -1025 0 -350 3 -422 21 -515 35 -173 45
-280 46 -463 0 -126 -9 -323 -17 -368 -2 -11 -6 -39 -9 -64 -12 -89 21 56 47
215 51 298 61 518 33 680 -22 127 -25 149 -32 250 -4 50 -8 108 -10 130 -11
121 -19 623 -18 1158 1 334 0 607 -3 607 -2 0 -4 -30 -5 -67z"/>
<path d="M949 4119 c-19 -19 -21 -29 -16 -98 3 -42 8 -85 10 -96 3 -11 8 -42
11 -70 11 -80 16 -66 16 46 0 118 13 179 37 179 48 0 142 -87 166 -153 8 -22
92 -385 101 -439 8 -42 22 -51 22 -15 2 67 28 193 46 215 15 17 22 15 57 -14
84 -71 104 -173 66 -344 l-8 -35 28 33 c45 53 75 41 96 -39 11 -40 9 -58 -9
-139 -12 -51 -20 -95 -18 -97 5 -6 54 113 61 150 17 88 4 174 -31 212 -19 21
-27 23 -48 16 l-24 -10 2 82 c2 45 -1 96 -5 113 -10 37 -81 115 -125 137 -27
14 -33 14 -52 1 -24 -17 -42 -71 -42 -128 0 -22 -2 -37 -4 -35 -5 4 -21 99
-33 184 -27 207 -66 272 -199 339 -63 32 -78 32 -105 5z"/>
<path d="M6235 4128 c-48 -15 -137 -80 -162 -117 -30 -44 -39 -81 -73 -276
-18 -105 -28 -145 -29 -115 -2 64 -18 117 -43 134 -19 13 -25 13 -52 -1 -40
-19 -115 -100 -124 -133 -4 -14 -6 -64 -6 -112 0 -73 -2 -86 -14 -79 -47 26
-93 -45 -93 -142 1 -81 5 -102 41 -184 34 -79 37 -68 11 35 -22 82 -20 162 4
198 21 32 40 30 77 -7 l31 -30 -7 33 c-29 135 -27 213 9 274 34 58 90 101 110
84 16 -13 44 -131 48 -202 2 -52 11 -55 20 -6 4 18 29 129 56 246 57 243 74
278 163 332 53 32 70 25 84 -32 1 -5 3 -61 4 -125 l2 -118 14 75 c7 41 16 112
20 158 6 71 4 85 -11 102 -20 22 -34 23 -80 8z"/>
<path d="M701 3842 c-46 -14 -47 -33 -8 -123 37 -88 47 -113 177 -464 172
-462 261 -663 339 -768 115 -155 305 -316 621 -524 402 -266 595 -414 757
-585 115 -120 222 -286 261 -403 29 -87 33 -115 37 -270 3 -77 5 -144 6 -150
1 -11 25 69 37 125 13 65 6 261 -13 334 -38 149 -93 233 -270 412 -120 121
-208 199 -355 316 -166 131 -255 191 -530 353 -63 37 -157 100 -209 138 -258
194 -362 359 -556 882 -136 368 -194 515 -251 628 -13 27 -24 51 -24 53 0 2
16 4 36 4 112 0 276 -153 464 -436 73 -109 77 -111 34 -19 -87 183 -167 312
-251 405 -13 14 -23 28 -23 33 0 4 -4 6 -9 2 -5 -3 -12 -1 -16 5 -3 6 -25 20
-47 31 -44 22 -163 34 -207 21z"/>
<path d="M6373 3827 c-28 -12 -68 -35 -88 -52 -73 -59 -169 -204 -259 -390
-22 -44 -44 -89 -49 -100 -15 -31 -3 -16 49 60 207 305 364 455 476 455 21 0
38 -2 38 -4 0 -3 -20 -47 -45 -98 -52 -109 -92 -209 -210 -529 -101 -272 -120
-318 -187 -458 -51 -105 -102 -195 -125 -219 -7 -7 -13 -17 -13 -20 0 -14
-135 -147 -205 -203 -92 -74 -190 -138 -355 -234 -171 -98 -315 -199 -475
-329 -27 -23 -61 -50 -74 -61 -112 -91 -329 -306 -389 -387 -54 -70 -95 -157
-118 -243 -25 -97 -25 -283 -1 -388 10 -43 20 -77 22 -75 3 2 6 71 9 153 3 84
12 177 20 212 41 166 165 354 348 528 164 157 364 307 663 500 154 100 330
227 408 294 83 70 217 214 259 276 58 86 151 293 243 540 163 440 190 511 278
727 18 45 -7 62 -95 65 -57 1 -85 -3 -125 -20z"/>
<path d="M5917 3178 c-19 -29 -70 -111 -115 -183 -44 -71 -94 -149 -111 -172
-34 -47 -192 -177 -303 -249 -122 -80 -303 -153 -417 -169 l-54 -7 6 33 c11
56 51 81 206 133 309 101 406 183 461 386 15 58 22 153 12 168 -15 23 -69 18
-187 -18 -105 -32 -365 -136 -475 -190 -53 -27 -186 -82 -296 -123 -232 -87
-290 -114 -399 -181 -205 -126 -324 -257 -423 -468 -41 -86 -46 -101 -70 -207
-14 -58 -13 -213 2 -329 15 -116 12 -254 -10 -384 -2 -16 -6 -40 -9 -55 -2
-16 -9 -57 -14 -93 -6 -36 -17 -95 -25 -132 -8 -38 -13 -76 -11 -85 2 -10 4
-22 4 -27 1 -6 6 -5 12 1 8 8 25 67 44 153 2 8 11 44 20 80 9 36 19 76 22 90
2 14 13 64 23 112 29 130 35 184 31 283 -7 195 -4 313 13 445 17 124 86 251
201 365 162 162 384 288 707 400 56 20 169 70 251 111 242 123 385 181 468
190 56 6 74 -10 66 -59 -8 -52 -64 -161 -102 -200 -38 -39 -126 -99 -160 -110
-95 -28 -290 -99 -315 -114 -17 -9 -41 -33 -55 -53 -31 -45 -81 -156 -90 -197
-6 -31 -5 -33 24 -33 83 0 285 64 411 132 260 138 426 269 536 424 36 50 82
143 95 192 14 53 43 140 56 165 22 44 7 31 -30 -25z"/>
<path d="M1315 3203 c4 -10 27 -76 51 -148 53 -154 102 -232 217 -346 104
-103 319 -245 493 -325 90 -42 283 -96 326 -92 30 3 33 6 31 32 -2 33 -63 165
-94 204 -33 43 -66 59 -213 108 -253 84 -328 140 -390 293 -50 124 -29 150 99
117 89 -24 390 -159 500 -226 17 -10 84 -37 150 -60 334 -118 556 -241 711
-395 150 -148 200 -257 221 -475 4 -41 6 -133 4 -205 -7 -248 -7 -256 18 -368
6 -26 14 -64 17 -84 3 -21 24 -109 46 -198 46 -186 46 -186 47 -202 1 -19 19
-15 25 5 4 10 -5 75 -18 143 -13 68 -27 144 -30 169 -3 25 -8 54 -10 65 -18
96 -25 279 -12 360 16 107 16 308 1 375 -50 216 -204 454 -375 581 -57 42
-193 124 -253 153 -31 14 -137 56 -234 92 -98 36 -241 95 -318 131 -295 138
-561 230 -647 224 -42 -3 -31 -137 23 -268 56 -135 178 -219 434 -302 66 -21
132 -44 147 -51 42 -20 78 -110 44 -110 -39 0 -164 33 -240 63 -143 57 -247
124 -467 302 -29 23 -91 114 -213 313 -81 130 -109 170 -91 125z"/>
</g>
</svg>
